<svg width="1031" height="206" viewBox="0 0 1031 206" fill="none" xmlns="http://www.w3.org/2000/svg">
<path fill-rule="evenodd" clip-rule="evenodd" d="M857.291 205.841V126.744L759 0H858.66L897.337 51.8757L934.545 0H1030.16L937.804 125.096V205.841H857.291ZM917.804 118.512L990.537 20H944.812L897.649 85.7551L848.624 20H799.82L877.291 119.898V185.841H917.804V118.512Z" fill="#393939"/>
<path fill-rule="evenodd" clip-rule="evenodd" d="M677 205.841V0H757.276V130.304H852.279V205.841H677ZM737.276 150.304V20H697V185.841H832.279V150.304H737.276Z" fill="#393939"/>
<path fill-rule="evenodd" clip-rule="evenodd" d="M458 205.841V0H524.248L592.568 74.7488V0H671.66V205.841H604.955L537.091 131.808V205.841H458ZM516.653 109.512C516.516 106.586 516.346 103.757 516.143 101.025C515.986 96.7609 515.67 92.7333 515.196 88.9427C514.722 84.9941 514.248 81.1244 513.774 77.3338C513.757 77.1287 513.74 76.9229 513.722 76.7164L613.753 185.841H651.66V20H612.568V76.623C612.726 81.6772 612.884 86.5735 613.042 91.3118C613.181 93.3942 613.32 95.4918 613.459 97.6047C613.636 100.3 613.813 103.019 613.99 105.764C614.306 110.502 614.701 115.556 615.175 120.926C615.549 124.017 615.952 127.19 616.382 130.447L515.433 20H478V185.841H517.091V130.403C517.091 124.559 517.012 119.268 516.854 114.53C516.798 112.827 516.731 111.154 516.653 109.512Z" fill="#393939"/>
<path fill-rule="evenodd" clip-rule="evenodd" d="M274 205.841V0H450.701V74.3529H440.04V131.489H453.07V205.841H274ZM420.04 117.846V85.152H333.091V54.3529H430.701V20H294V185.841H433.07V151.489H333.091V117.846H420.04Z" fill="#393939"/>
<path fill-rule="evenodd" clip-rule="evenodd" d="M170.576 205.841L134.807 161.829L100.267 205.841H0L84.9302 101.122L0.355576 0H103.178L137.451 42.4601L169.403 0H269.8L187.274 103.157L273.8 205.841H170.576ZM161.398 103.487L228.188 20H179.383L138.004 74.9874L93.619 20H43.1559L110.84 100.926L41.9713 185.841H90.5391L134.533 129.781L180.094 185.841H230.794L161.398 103.487Z" fill="#393939"/>
</svg>