<?xml version="1.0" encoding="UTF-8" standalone="no"?>
<svg
   width="69"
   height="20"
   role="img"
   aria-label="official"
   version="1.1"
   id="svg28"
   sodipodi:docname="project-official-brightgreen.svg"
   inkscape:version="1.2 (dc2aedaf03, 2022-05-15)"
   xmlns:inkscape="http://www.inkscape.org/namespaces/inkscape"
   xmlns:sodipodi="http://sodipodi.sourceforge.net/DTD/sodipodi-0.dtd"
   xmlns="http://www.w3.org/2000/svg"
   xmlns:svg="http://www.w3.org/2000/svg">
  <defs
     id="defs32" />
  <sodipodi:namedview
     id="namedview30"
     pagecolor="#ffffff"
     bordercolor="#666666"
     borderopacity="1.0"
     inkscape:showpageshadow="2"
     inkscape:pageopacity="0.0"
     inkscape:pagecheckerboard="0"
     inkscape:deskcolor="#d1d1d1"
     showgrid="false"
     inkscape:zoom="5.9"
     inkscape:cx="58.813559"
     inkscape:cy="4.0677966"
     inkscape:window-width="1366"
     inkscape:window-height="697"
     inkscape:window-x="-8"
     inkscape:window-y="-8"
     inkscape:window-maximized="1"
     inkscape:current-layer="svg28" />
  <title
     id="title2">official</title>
  <linearGradient
     id="s"
     x2="0"
     y2="37.148351"
     gradientTransform="matrix(1.8574176,0,0,0.5383819,1.4775582e-6,-3.2203391e-8)"
     x1="0"
     y1="0"
     gradientUnits="userSpaceOnUse">
    <stop
       offset="0"
       stop-color="#bbb"
       stop-opacity=".1"
       id="stop4" />
    <stop
       offset="1"
       stop-opacity=".1"
       id="stop6" />
  </linearGradient>
  <clipPath
     id="r">
    <rect
       width="69"
       height="20"
       rx="3"
       fill="#fff"
       id="rect9" />
  </clipPath>
  <g
     clip-path="url(#r)"
     id="g18">
    <rect
       width="24"
       height="20"
       fill="#555555"
       id="rect12" />
    <rect
       x="24"
       width="45"
       height="20"
       fill="#ff8a2c"
       id="rect14"
       style="fill:#2cff78;fill-opacity:1" />
    <rect
       width="69"
       height="20"
       fill="url(#s)"
       id="rect16"
       style="fill:url(#s)"
       x="0"
       y="6.8696878e-08" />
  </g>
  <g
     fill="#fff"
     text-anchor="middle"
     font-family="Verdana,Geneva,DejaVu Sans,sans-serif"
     text-rendering="geometricPrecision"
     font-size="110"
     id="g26">
    <g
       aria-label="CJM"
       transform="matrix(0.89611782,0,0,0.92240562,1.4740456,0.68896241)"
       id="text259"
       style="font-size:11.3036px;font-family:'SF Mono';-inkscape-font-specification:'SF Mono';stroke-width:0.28259">
      <path
         d="m 4.8820838,13.372478 c -1.1976959,0 -1.8213809,-0.811342 -1.8213809,-2.356756 V 9.5420589 c 0,-1.5454141 0.623685,-2.3567565 1.8158616,-2.3567565 0.9548451,0 1.6171654,0.6954363 1.6502814,1.7385908 H 7.6859065 C 7.6638292,7.1742637 6.609636,6.1311092 4.8876031,6.1311092 c -1.8986516,0 -3.0080381,1.2528893 -3.0080381,3.4109497 v 1.4736631 c 0,2.15806 1.1093865,3.410949 3.0080381,3.410949 1.6778782,0 2.7983034,-1.065232 2.7983034,-2.676878 H 6.5268459 c -0.022077,1.004519 -0.6512816,1.622685 -1.6447621,1.622685 z"
         id="path1041" />
      <path
         d="m 11.461133,14.426671 c 1.539894,0 2.461624,-0.932767 2.461624,-2.49474 V 6.2966893 H 9.9985085 v 0.9989998 h 2.7762265 v 4.6141649 c 0,0.932768 -0.480183,1.451585 -1.33016,1.451585 -0.75063,0 -1.274967,-0.480182 -1.302564,-1.192176 H 9.0215861 c 0.00552,1.352237 0.9879609,2.257408 2.4395469,2.257408 z"
         id="path1043" />
      <path
         d="m 16.715541,11.324804 -0.09383,-3.2177725 h 0.08279 l 1.550934,4.2830045 h 0.849977 l 1.550934,-4.2830045 h 0.08279 l -0.09383,3.2177725 v 2.936287 h 0.999 V 6.2966893 H 20.407977 L 18.71906,11.126108 H 18.64179 L 16.947353,6.2966893 h -1.230812 v 7.9644017 h 0.999 z"
         id="path1045" />
    </g>
    <text
       aria-hidden="true"
       x="455"
       y="150"
       fill="#010101"
       fill-opacity=".3"
       transform="scale(.1)"
       textLength="350"
       id="text22">official</text>
    <text
       x="455"
       y="140"
       transform="scale(.1)"
       fill="#fff"
       textLength="350"
       id="text24">official</text>
  </g>
</svg>
